<svg id="visual" viewBox="0 0 960 540" width="960" height="540" xmlns="http://www.w3.org/2000/svg" xmlns:xlink="http://www.w3.org/1999/xlink" version="1.1"><rect x="0" y="0" width="960" height="540" fill="#000000"></rect><path d="M0 369L22.8 368.3C45.7 367.7 91.3 366.3 137 374.3C182.7 382.3 228.3 399.7 274 403.5C319.7 407.3 365.3 397.7 411.2 391.5C457 385.3 503 382.7 548.8 381C594.7 379.3 640.3 378.7 686 378C731.7 377.3 777.3 376.7 823 381.5C868.7 386.3 914.3 396.7 937.2 401.8L960 407L960 541L937.2 541C914.3 541 868.7 541 823 541C777.3 541 731.7 541 686 541C640.3 541 594.7 541 548.8 541C503 541 457 541 411.2 541C365.3 541 319.7 541 274 541C228.3 541 182.7 541 137 541C91.3 541 45.7 541 22.8 541L0 541Z" fill="#3a8139"></path><path d="M0 433L22.8 428.8C45.7 424.7 91.3 416.3 137 416.3C182.7 416.3 228.3 424.7 274 427.3C319.7 430 365.3 427 411.2 428.7C457 430.3 503 436.7 548.8 433.7C594.7 430.7 640.3 418.3 686 418.8C731.7 419.3 777.3 432.7 823 437C868.7 441.3 914.3 436.7 937.2 434.3L960 432L960 541L937.2 541C914.3 541 868.7 541 823 541C777.3 541 731.7 541 686 541C640.3 541 594.7 541 548.8 541C503 541 457 541 411.2 541C365.3 541 319.7 541 274 541C228.3 541 182.7 541 137 541C91.3 541 45.7 541 22.8 541L0 541Z" fill="#55bb53"></path><path d="M0 448L22.8 448.8C45.7 449.7 91.3 451.3 137 452C182.7 452.7 228.3 452.3 274 454.5C319.7 456.7 365.3 461.3 411.2 464.8C457 468.3 503 470.7 548.8 467.5C594.7 464.3 640.3 455.7 686 453.3C731.7 451 777.3 455 823 459.3C868.7 463.7 914.3 468.3 937.2 470.7L960 473L960 541L937.2 541C914.3 541 868.7 541 823 541C777.3 541 731.7 541 686 541C640.3 541 594.7 541 548.8 541C503 541 457 541 411.2 541C365.3 541 319.7 541 274 541C228.3 541 182.7 541 137 541C91.3 541 45.7 541 22.8 541L0 541Z" fill="#55bb53"></path><path d="M0 498L22.8 500.2C45.7 502.3 91.3 506.7 137 507.2C182.7 507.7 228.3 504.3 274 503.7C319.7 503 365.3 505 411.2 503.8C457 502.7 503 498.3 548.8 497.8C594.7 497.3 640.3 500.7 686 498.7C731.7 496.7 777.3 489.3 823 488.5C868.7 487.7 914.3 493.3 937.2 496.2L960 499L960 541L937.2 541C914.3 541 868.7 541 823 541C777.3 541 731.7 541 686 541C640.3 541 594.7 541 548.8 541C503 541 457 541 411.2 541C365.3 541 319.7 541 274 541C228.3 541 182.7 541 137 541C91.3 541 45.7 541 22.8 541L0 541Z" fill="#3a8139"></path></svg>