<svg id="visual" viewBox="0 0 960 540" width="960" height="540" xmlns="http://www.w3.org/2000/svg" xmlns:xlink="http://www.w3.org/1999/xlink" version="1.1"><rect x="0" y="0" width="960" height="540" fill="#ffffff"></rect><path d="M0 419L16 409.2C32 399.3 64 379.7 96 373.2C128 366.7 160 373.3 192 370.5C224 367.7 256 355.3 288 357.2C320 359 352 375 384 375.8C416 376.7 448 362.3 480 362C512 361.7 544 375.3 576 377.3C608 379.3 640 369.7 672 363.7C704 357.7 736 355.3 768 354.2C800 353 832 353 864 354.8C896 356.7 928 360.3 944 362.2L960 364L960 541L944 541C928 541 896 541 864 541C832 541 800 541 768 541C736 541 704 541 672 541C640 541 608 541 576 541C544 541 512 541 480 541C448 541 416 541 384 541C352 541 320 541 288 541C256 541 224 541 192 541C160 541 128 541 96 541C64 541 32 541 16 541L0 541Z" fill="#5ac758"></path><path d="M0 403L16 402.8C32 402.7 64 402.3 96 407.7C128 413 160 424 192 428C224 432 256 429 288 428.5C320 428 352 430 384 424.7C416 419.3 448 406.7 480 405.5C512 404.3 544 414.7 576 421.2C608 427.7 640 430.3 672 431.8C704 433.3 736 433.7 768 426.5C800 419.3 832 404.7 864 404.7C896 404.7 928 419.3 944 426.7L960 434L960 541L944 541C928 541 896 541 864 541C832 541 800 541 768 541C736 541 704 541 672 541C640 541 608 541 576 541C544 541 512 541 480 541C448 541 416 541 384 541C352 541 320 541 288 541C256 541 224 541 192 541C160 541 128 541 96 541C64 541 32 541 16 541L0 541Z" fill="#4aa348"></path><path d="M0 484L16 484.3C32 484.7 64 485.3 96 484.7C128 484 160 482 192 483.2C224 484.3 256 488.7 288 488.7C320 488.7 352 484.3 384 480.5C416 476.7 448 473.3 480 468C512 462.7 544 455.3 576 460C608 464.7 640 481.3 672 483.8C704 486.3 736 474.7 768 471.8C800 469 832 475 864 475.5C896 476 928 471 944 468.5L960 466L960 541L944 541C928 541 896 541 864 541C832 541 800 541 768 541C736 541 704 541 672 541C640 541 608 541 576 541C544 541 512 541 480 541C448 541 416 541 384 541C352 541 320 541 288 541C256 541 224 541 192 541C160 541 128 541 96 541C64 541 32 541 16 541L0 541Z" fill="#3a8139"></path></svg>